<?xml version='1.0' encoding='utf-8'?>
<svg xmlns="http://www.w3.org/2000/svg" width="1500" height="1940" viewBox="0 0 1500 1940" role="img" aria-labelledby="title"><title id="title">问题三 · 详细处理流程图</title><desc>根据用户提供的流程图模板重绘；文字及形状可编辑，内容对应当前正式实现。</desc><defs><linearGradient id="blue-head" x1="0" y1="0" x2="1" y2="0"><stop offset="0%" stop-color="#CDE9FF" /><stop offset="100%" stop-color="#F5FAFF" /></linearGradient><linearGradient id="blue-body" x1="0" y1="0" x2="1" y2="0"><stop offset="0%" stop-color="#F5FAFF" /><stop offset="100%" stop-color="#FFFFFF" /></linearGradient><linearGradient id="blue-dark" x1="0" y1="0" x2="1" y2="0"><stop offset="0%" stop-color="#167DC7" /><stop offset="100%" stop-color="#235B89" /></linearGradient><marker id="arrow-blue" viewBox="0 0 10 10" refX="9" refY="5" markerWidth="8" markerHeight="8" orient="auto-start-reverse"><path d="M 0 0 L 10 5 L 0 10 Z" fill="#167DC7" /></marker><linearGradient id="green-head" x1="0" y1="0" x2="1" y2="0"><stop offset="0%" stop-color="#D7F2D8" /><stop offset="100%" stop-color="#F5FCF5" /></linearGradient><linearGradient id="green-body" x1="0" y1="0" x2="1" y2="0"><stop offset="0%" stop-color="#F5FCF5" /><stop offset="100%" stop-color="#FFFFFF" /></linearGradient><linearGradient id="green-dark" x1="0" y1="0" x2="1" y2="0"><stop offset="0%" stop-color="#258449" /><stop offset="100%" stop-color="#235B89" /></linearGradient><marker id="arrow-green" viewBox="0 0 10 10" refX="9" refY="5" markerWidth="8" markerHeight="8" orient="auto-start-reverse"><path d="M 0 0 L 10 5 L 0 10 Z" fill="#258449" /></marker><linearGradient id="orange-head" x1="0" y1="0" x2="1" y2="0"><stop offset="0%" stop-color="#FFE4BE" /><stop offset="100%" stop-color="#FFFAF2" /></linearGradient><linearGradient id="orange-body" x1="0" y1="0" x2="1" y2="0"><stop offset="0%" stop-color="#FFFAF2" /><stop offset="100%" stop-color="#FFFFFF" /></linearGradient><linearGradient id="orange-dark" x1="0" y1="0" x2="1" y2="0"><stop offset="0%" stop-color="#BF651A" /><stop offset="100%" stop-color="#235B89" /></linearGradient><marker id="arrow-orange" viewBox="0 0 10 10" refX="9" refY="5" markerWidth="8" markerHeight="8" orient="auto-start-reverse"><path d="M 0 0 L 10 5 L 0 10 Z" fill="#BF651A" /></marker><linearGradient id="purple-head" x1="0" y1="0" x2="1" y2="0"><stop offset="0%" stop-color="#E2DAFF" /><stop offset="100%" stop-color="#FAF8FF" /></linearGradient><linearGradient id="purple-body" x1="0" y1="0" x2="1" y2="0"><stop offset="0%" stop-color="#FAF8FF" /><stop offset="100%" stop-color="#FFFFFF" /></linearGradient><linearGradient id="purple-dark" x1="0" y1="0" x2="1" y2="0"><stop offset="0%" stop-color="#6851C3" /><stop offset="100%" stop-color="#235B89" /></linearGradient><marker id="arrow-purple" viewBox="0 0 10 10" refX="9" refY="5" markerWidth="8" markerHeight="8" orient="auto-start-reverse"><path d="M 0 0 L 10 5 L 0 10 Z" fill="#6851C3" /></marker><linearGradient id="rose-head" x1="0" y1="0" x2="1" y2="0"><stop offset="0%" stop-color="#F7DCE5" /><stop offset="100%" stop-color="#FFF7FA" /></linearGradient><linearGradient id="rose-body" x1="0" y1="0" x2="1" y2="0"><stop offset="0%" stop-color="#FFF7FA" /><stop offset="100%" stop-color="#FFFFFF" /></linearGradient><linearGradient id="rose-dark" x1="0" y1="0" x2="1" y2="0"><stop offset="0%" stop-color="#B34D70" /><stop offset="100%" stop-color="#235B89" /></linearGradient><marker id="arrow-rose" viewBox="0 0 10 10" refX="9" refY="5" markerWidth="8" markerHeight="8" orient="auto-start-reverse"><path d="M 0 0 L 10 5 L 0 10 Z" fill="#B34D70" /></marker><linearGradient id="red-head" x1="0" y1="0" x2="1" y2="0"><stop offset="0%" stop-color="#FFDCDD" /><stop offset="100%" stop-color="#FFF8F8" /></linearGradient><linearGradient id="red-body" x1="0" y1="0" x2="1" y2="0"><stop offset="0%" stop-color="#FFF8F8" /><stop offset="100%" stop-color="#FFFFFF" /></linearGradient><linearGradient id="red-dark" x1="0" y1="0" x2="1" y2="0"><stop offset="0%" stop-color="#BA4748" /><stop offset="100%" stop-color="#235B89" /></linearGradient><marker id="arrow-red" viewBox="0 0 10 10" refX="9" refY="5" markerWidth="8" markerHeight="8" orient="auto-start-reverse"><path d="M 0 0 L 10 5 L 0 10 Z" fill="#BA4748" /></marker><linearGradient id="gray-head" x1="0" y1="0" x2="1" y2="0"><stop offset="0%" stop-color="#E2EAF1" /><stop offset="100%" stop-color="#F7FAFC" /></linearGradient><linearGradient id="gray-body" x1="0" y1="0" x2="1" y2="0"><stop offset="0%" stop-color="#F7FAFC" /><stop offset="100%" stop-color="#FFFFFF" /></linearGradient><linearGradient id="gray-dark" x1="0" y1="0" x2="1" y2="0"><stop offset="0%" stop-color="#637C92" /><stop offset="100%" stop-color="#235B89" /></linearGradient><marker id="arrow-gray" viewBox="0 0 10 10" refX="9" refY="5" markerWidth="8" markerHeight="8" orient="auto-start-reverse"><path d="M 0 0 L 10 5 L 0 10 Z" fill="#637C92" /></marker></defs><rect x="0" y="0" width="1500" height="1940" fill="white" /><g id="editable-shapes"><rect id="frozen" x="410" y="110" width="680" height="109" rx="12" fill="url(#blue-body)" stroke="#167DC7" stroke-width="1.8" /><rect x="411" y="111" width="678" height="52" rx="11" fill="url(#blue-head)" /><g transform="translate(428,119) scale(0.85)" fill="none" stroke="#167DC7" stroke-width="2.5" stroke-linecap="round" stroke-linejoin="round"><path d="M 20 8 L 6 32 H 34 Z" /><circle cx="20" cy="8" r="5" fill="white" /><circle cx="6" cy="32" r="5" fill="white" /><circle cx="34" cy="32" r="5" fill="white" /></g><rect id="samples" x="410" y="249" width="680" height="140" rx="12" fill="url(#gray-body)" stroke="#637C92" stroke-width="1.8" /><rect x="411" y="250" width="678" height="52" rx="11" fill="url(#gray-head)" /><g transform="translate(428,258) scale(0.85)" fill="none" stroke="#637C92" stroke-width="2.5" stroke-linecap="round" stroke-linejoin="round"><ellipse cx="20" cy="7" rx="16" ry="6" /><path d="M 4 7 V 29 C 4 38 36 38 36 29 V 7 M 4 18 C 4 27 36 27 36 18" /></g><rect id="selection" x="410" y="419" width="680" height="140" rx="12" fill="url(#blue-body)" stroke="#167DC7" stroke-width="1.8" /><rect x="411" y="420" width="678" height="52" rx="11" fill="url(#blue-head)" /><g transform="translate(428,428) scale(0.85)" fill="none" stroke="#167DC7" stroke-width="2.5" stroke-linecap="round" stroke-linejoin="round"><path d="M 6 2 H 22 L 30 10 V 34 H 6 Z M 22 2 V 11 H 30 M 11 17 H 25 M 11 23 H 25 M 11 29 H 22" /></g><rect id="features" x="390" y="589" width="720" height="115" rx="12" fill="url(#blue-body)" stroke="#167DC7" stroke-width="1.8" /><rect x="391" y="590" width="718" height="52" rx="11" fill="url(#blue-head)" /><g transform="translate(408,598) scale(0.85)" fill="none" stroke="#167DC7" stroke-width="2.5" stroke-linecap="round" stroke-linejoin="round"><path d="M 20 8 L 6 32 H 34 Z" /><circle cx="20" cy="8" r="5" fill="white" /><circle cx="6" cy="32" r="5" fill="white" /><circle cx="34" cy="32" r="5" fill="white" /></g><rect id="features-0" x="405" y="650" width="222" height="39" rx="8" fill="white" stroke="#167DC7" stroke-width="1.8" /><rect id="features-1" x="637" y="650" width="222" height="39" rx="8" fill="white" stroke="#258449" stroke-width="1.8" /><rect id="features-2" x="869" y="650" width="222" height="39" rx="8" fill="white" stroke="#B34D70" stroke-width="1.8" /><rect id="prediction" x="410" y="734" width="680" height="141" rx="12" fill="url(#blue-body)" stroke="#167DC7" stroke-width="1.8" /><rect x="411" y="735" width="678" height="52" rx="11" fill="url(#blue-head)" /><g transform="translate(428,743) scale(0.85)" fill="none" stroke="#167DC7" stroke-width="2.5" stroke-linecap="round" stroke-linejoin="round"><path d="M 20 8 L 6 32 H 34 Z" /><circle cx="20" cy="8" r="5" fill="white" /><circle cx="6" cy="32" r="5" fill="white" /><circle cx="34" cy="32" r="5" fill="white" /></g><rect id="explanation" x="465" y="906" width="570" height="65" rx="12" fill="url(#blue-dark)" stroke="#167DC7" stroke-width="1.8" /><g transform="translate(495,920) scale(1)" fill="none" stroke="white" stroke-width="2.5" stroke-linecap="round" stroke-linejoin="round"><circle cx="16" cy="16" r="12" /><path d="M 25 25 L 38 38" /></g><rect id="modality" x="45" y="1014" width="450" height="235" rx="12" fill="url(#blue-body)" stroke="#167DC7" stroke-width="1.8" /><rect x="46" y="1015" width="448" height="52" rx="11" fill="url(#blue-head)" /><g transform="translate(63,1023) scale(0.85)" fill="none" stroke="#167DC7" stroke-width="2.5" stroke-linecap="round" stroke-linejoin="round"><rect x="4" y="21" width="7" height="17" rx="1" fill="#167DC7" stroke="none" /><rect x="16" y="10" width="7" height="28" rx="1" fill="#167DC7" stroke="none" /><rect x="28" y="3" width="7" height="35" rx="1" fill="#167DC7" stroke="none" /></g><rect id="ig" x="525" y="1014" width="450" height="235" rx="12" fill="url(#blue-body)" stroke="#167DC7" stroke-width="1.8" /><rect x="526" y="1015" width="448" height="52" rx="11" fill="url(#blue-head)" /><g transform="translate(543,1023) scale(0.85)" fill="none" stroke="#167DC7" stroke-width="2.5" stroke-linecap="round" stroke-linejoin="round"><path d="M 20 8 L 6 32 H 34 Z" /><circle cx="20" cy="8" r="5" fill="white" /><circle cx="6" cy="32" r="5" fill="white" /><circle cx="34" cy="32" r="5" fill="white" /></g><rect id="local" x="1005" y="1014" width="450" height="235" rx="12" fill="url(#blue-body)" stroke="#167DC7" stroke-width="1.8" /><rect x="1006" y="1015" width="448" height="52" rx="11" fill="url(#blue-head)" /><g transform="translate(1023,1023) scale(0.85)" fill="none" stroke="#167DC7" stroke-width="2.5" stroke-linecap="round" stroke-linejoin="round"><circle cx="20" cy="20" r="17" /><path d="M 20 9 V 21 H 29" /></g><rect id="fidelity" x="290" y="1305" width="920" height="153" rx="12" fill="url(#blue-body)" stroke="#167DC7" stroke-width="1.8" /><rect x="291" y="1306" width="918" height="52" rx="11" fill="url(#blue-head)" /><g transform="translate(308,1314) scale(0.85)" fill="none" stroke="#167DC7" stroke-width="2.5" stroke-linecap="round" stroke-linejoin="round"><path d="M 20 2 L 35 9 V 23 Q 31 33 20 38 Q 9 33 5 23 V 9 Z M 11 20 L 17 26 L 29 13" /></g><rect id="output" x="290" y="1494" width="920" height="154" rx="12" fill="url(#blue-body)" stroke="#167DC7" stroke-width="1.8" /><rect x="291" y="1495" width="918" height="52" rx="11" fill="url(#blue-head)" /><g transform="translate(308,1503) scale(0.85)" fill="none" stroke="#167DC7" stroke-width="2.5" stroke-linecap="round" stroke-linejoin="round"><rect x="4" y="21" width="7" height="17" rx="1" fill="#167DC7" stroke="none" /><rect x="16" y="10" width="7" height="28" rx="1" fill="#167DC7" stroke="none" /><rect x="28" y="3" width="7" height="35" rx="1" fill="#167DC7" stroke="none" /></g><rect id="goal" x="1230" y="1494" width="232" height="154" rx="12" fill="url(#blue-body)" stroke="#167DC7" stroke-width="1.8" stroke-dasharray="8 6" /><rect x="1231" y="1495" width="230" height="52" rx="11" fill="url(#blue-head)" /><rect id="pending" x="290" y="1690" width="920" height="153" rx="12" fill="url(#orange-body)" stroke="#BF651A" stroke-width="1.8" stroke-dasharray="8 6" /><rect x="291" y="1691" width="918" height="52" rx="11" fill="url(#orange-head)" /></g><g id="editable-connectors" fill="none" stroke-linejoin="round"><path id="arrow-000" d="M 750,219 L 750,249" stroke="#167DC7" stroke-width="2.3" marker-end="url(#arrow-blue)" /><path id="arrow-001" d="M 750,389 L 750,419" stroke="#167DC7" stroke-width="2.3" marker-end="url(#arrow-blue)" /><path id="arrow-002" d="M 750,559 L 750,589" stroke="#167DC7" stroke-width="2.3" marker-end="url(#arrow-blue)" /><path id="arrow-003" d="M 750,704 L 750,734" stroke="#167DC7" stroke-width="2.3" marker-end="url(#arrow-blue)" /><path id="arrow-004" d="M 750,875 L 750,906" stroke="#167DC7" stroke-width="2.3" marker-end="url(#arrow-blue)" /><path id="arrow-005" d="M 750,971 L 750,993 L 270,993 L 270,1014" stroke="#167DC7" stroke-width="2.3" marker-end="url(#arrow-blue)" /><path id="arrow-006" d="M 270,1249 L 270,1277 L 750,1277 L 750,1305" stroke="#167DC7" stroke-width="2.3" marker-end="url(#arrow-blue)" /><path id="arrow-007" d="M 750,971 L 750,993 L 750,993 L 750,1014" stroke="#167DC7" stroke-width="2.3" marker-end="url(#arrow-blue)" /><path id="arrow-008" d="M 750,1249 L 750,1277 L 750,1277 L 750,1305" stroke="#167DC7" stroke-width="2.3" marker-end="url(#arrow-blue)" /><path id="arrow-009" d="M 750,971 L 750,993 L 1230,993 L 1230,1014" stroke="#167DC7" stroke-width="2.3" marker-end="url(#arrow-blue)" /><path id="arrow-010" d="M 1230,1249 L 1230,1277 L 750,1277 L 750,1305" stroke="#167DC7" stroke-width="2.3" marker-end="url(#arrow-blue)" /><path id="arrow-011" d="M 750,1458 L 750,1494" stroke="#167DC7" stroke-width="2.3" marker-end="url(#arrow-blue)" /><path id="arrow-012" d="M 1210,1571 L 1230,1571" stroke="#167DC7" stroke-width="2.3" marker-end="url(#arrow-blue)" stroke-dasharray="7 6" /><path id="arrow-013" d="M 750,1648 L 750,1690" stroke="#BF651A" stroke-width="2.3" marker-end="url(#arrow-orange)" stroke-dasharray="7 6" /></g><g id="editable-text" font-family="Microsoft YaHei, sans-serif"><text id="text-000" x="750.0" y="48" font-size="40" font-weight="700" fill="#092D55" text-anchor="middle" dominant-baseline="central">问题三 · 详细处理流程图</text><text id="text-001" x="765.0" y="137" font-size="27" font-weight="700" fill="#167DC7" text-anchor="middle" dominant-baseline="central">复用问题2冻结M3及预处理</text><text id="text-002" x="750" y="186" font-size="21" font-weight="400" fill="#092D55" text-anchor="middle" dominant-baseline="central">权重、BERT、train标准化及预测规则不变；不重训。</text><text id="text-003" x="765.0" y="276" font-size="27" font-weight="700" fill="#637C92" text-anchor="middle" dominant-baseline="central">输入解释开发样本与专项样本</text><text id="text-004" x="750" y="325" font-size="21" font-weight="400" fill="#092D55" text-anchor="middle" dominant-baseline="central">解释开发：valid固定60条，每类20条，54个视频组。</text><text id="text-005" x="750" y="356" font-size="21" font-weight="400" fill="#092D55" text-anchor="middle" dominant-baseline="central">专项应用：附件4全20条；不是附件2 test。</text><text id="text-006" x="765.0" y="446" font-size="27" font-weight="700" fill="#167DC7" text-anchor="middle" dominant-baseline="central">预先固定样本、参考与展示规则</text><text id="text-007" x="750" y="495" font-size="21" font-weight="400" fill="#092D55" text-anchor="middle" dominant-baseline="central">不按预测对错或归因观感换样；附件4无真值标签。</text><text id="text-008" x="750" y="526" font-size="21" font-weight="400" fill="#092D55" text-anchor="middle" dominant-baseline="central">train均值为主参考，中位数仅作敏感性对照。</text><text id="text-009" x="765.0" y="616" font-size="28" font-weight="700" fill="#167DC7" text-anchor="middle" dominant-baseline="central">标准化多模态特征输入</text><text id="text-010" x="516.0" y="669.5" font-size="21" font-weight="400" fill="#092D55" text-anchor="middle" dominant-baseline="central">文本 50 × 768</text><text id="text-011" x="748.0" y="669.5" font-size="21" font-weight="400" fill="#092D55" text-anchor="middle" dominant-baseline="central">音频 50 × 74</text><text id="text-012" x="980.0" y="669.5" font-size="21" font-weight="400" fill="#092D55" text-anchor="middle" dominant-baseline="central">视觉 50 × 35</text><text id="text-013" x="765.0" y="761" font-size="27" font-weight="700" fill="#167DC7" text-anchor="middle" dominant-baseline="central">冻结预测与两个解释目标</text><text id="text-014" x="750" y="810" font-size="21" font-weight="400" fill="#092D55" text-anchor="middle" dominant-baseline="central">预测：三分类argmax + 有符号情感强度。</text><text id="text-015" x="750" y="841" font-size="21" font-weight="400" fill="#092D55" text-anchor="middle" dominant-baseline="central">解释：原预测类别logit / 原有符号回归输出。</text><text id="text-016" x="770" y="938" font-size="32" font-weight="700" fill="white" text-anchor="middle" dominant-baseline="central">可解释性分析模块</text><text id="text-017" x="285.0" y="1041" font-size="27" font-weight="700" fill="#167DC7" text-anchor="middle" dominant-baseline="central">模态贡献分析</text><text id="text-018" x="270" y="1090" font-size="20" font-weight="400" fill="#092D55" text-anchor="middle" dominant-baseline="central">主量来自IG，而非单次遮挡。</text><text id="text-019" x="270" y="1121" font-size="20" font-weight="400" fill="#092D55" text-anchor="middle" dominant-baseline="central">净贡献 C_m = Σ IG_m，保留符号。</text><text id="text-020" x="270" y="1152" font-size="20" font-weight="400" fill="#092D55" text-anchor="middle" dominant-baseline="central">份额 |C_m| / Σ|C_k|；另存绝对总量。</text><text id="text-021" x="270" y="1183" font-size="20" font-weight="400" fill="#092D55" text-anchor="middle" dominant-baseline="central">门控权重不等于归因份额。</text><text id="text-022" x="270" y="1214" font-size="20" font-weight="400" fill="#092D55" text-anchor="middle" dominant-baseline="central">整模态移除仅作干预诊断。</text><text id="text-023" x="765.0" y="1041" font-size="27" font-weight="700" fill="#167DC7" text-anchor="middle" dominant-baseline="central">局部特征归因</text><text id="text-024" x="750" y="1090" font-size="20" font-weight="400" fill="#092D55" text-anchor="middle" dominant-baseline="central">Integrated Gradients（IG）</text><text id="text-025" x="750" y="1121" font-size="20" font-weight="400" fill="#092D55" text-anchor="middle" dominant-baseline="central">对标准化T / A / V特征归因。</text><text id="text-026" x="750" y="1152" font-size="20" font-weight="400" fill="#092D55" text-anchor="middle" dominant-baseline="central">P / M离散掩码固定，不参与积分。</text><text id="text-027" x="750" y="1183" font-size="20" font-weight="400" fill="#092D55" text-anchor="middle" dominant-baseline="central">32步Gauss–Legendre；失败才升64。</text><text id="text-028" x="750" y="1214" font-size="20" font-weight="400" fill="#092D55" text-anchor="middle" dominant-baseline="central">检查数值完备性，不等于语义正确。</text><text id="text-029" x="1245.0" y="1041" font-size="27" font-weight="700" fill="#167DC7" text-anchor="middle" dominant-baseline="central">关键特征位置分析</text><text id="text-030" x="1230" y="1090" font-size="20" font-weight="400" fill="#092D55" text-anchor="middle" dominant-baseline="central">按IG选择20% / 50%连续特征块。</text><text id="text-031" x="1230" y="1121" font-size="20" font-weight="400" fill="#092D55" text-anchor="middle" dominant-baseline="central">分类：有符号支持度最大。</text><text id="text-032" x="1230" y="1152" font-size="20" font-weight="400" fill="#092D55" text-anchor="middle" dominant-baseline="central">强度：绝对净贡献最大，保留符号。</text><text id="text-033" x="1230" y="1183" font-size="20" font-weight="400" fill="#092D55" text-anchor="middle" dominant-baseline="central">与位置分层内等长随机块对照。</text><text id="text-034" x="1230" y="1214" font-size="20" font-weight="400" fill="#092D55" text-anchor="middle" dominant-baseline="central">位置索引不直接等于秒数或帧号。</text><text id="text-035" x="765.0" y="1332" font-size="28" font-weight="700" fill="#167DC7" text-anchor="middle" dominant-baseline="central">解释忠实性、稳定性与限制核验</text><text id="text-036" x="750" y="1380" font-size="21" font-weight="400" fill="#092D55" text-anchor="middle" dominant-baseline="central">valid60：关键块移除 vs 匹配随机块；按原video分组bootstrap。</text><text id="text-037" x="750" y="1410" font-size="21" font-weight="400" fill="#092D55" text-anchor="middle" dominant-baseline="central">均值/中位数、积分步数与整模态诊断；保留个体反例与参考敏感案例。</text><text id="text-038" x="750" y="1440" font-size="21" font-weight="400" fill="#092D55" text-anchor="middle" dominant-baseline="central">特征置零同时更新missing mask，不等价于BERT输入端删词。</text><text id="text-039" x="765.0" y="1521" font-size="28" font-weight="700" fill="#167DC7" text-anchor="middle" dominant-baseline="central">全20条预测、解释卡与证据层级</text><text id="text-040" x="750" y="1568" font-size="21" font-weight="400" fill="#092D55" text-anchor="middle" dominant-baseline="central">输出模态净贡献、局部归因、关键块及质量标记；不把数值收敛率当准确率。</text><text id="text-041" x="750" y="1598" font-size="21" font-weight="400" fill="#092D55" text-anchor="middle" dominant-baseline="central">文本：原词 / 字符位置已核验；未入模截断尾文不作为证据。</text><text id="text-042" x="750" y="1628" font-size="21" font-weight="400" fill="#092D55" text-anchor="middle" dominant-baseline="central">A/V：报告特征槽位；官方槽位→原词 / 秒 / 帧未核验，未知字段为null。</text><text id="text-043" x="1346.0" y="1521" font-size="27" font-weight="700" fill="#167DC7" text-anchor="middle" dominant-baseline="central">目标</text><text id="text-044" x="1346" y="1570" font-size="19" font-weight="400" fill="#092D55" text-anchor="middle" dominant-baseline="central">解释模型的预测依据</text><text id="text-045" x="1346" y="1599" font-size="19" font-weight="400" fill="#092D55" text-anchor="middle" dominant-baseline="central">并报告证据层级</text><text id="text-046" x="1346" y="1628" font-size="19" font-weight="400" fill="#092D55" text-anchor="middle" dominant-baseline="central">不声称因果证明</text><text id="text-047" x="750.0" y="1717" font-size="26" font-weight="700" fill="#BF651A" text-anchor="middle" dominant-baseline="central">待推进：文本证据的候选时间重建与媒体回看</text><text id="text-048" x="750" y="1763" font-size="21" font-weight="400" fill="#092D55" text-anchor="middle" dominant-baseline="central">原文 + MP4音频 → 候选词区间 → 文本证据对应时段及真实PTS同步画面。</text><text id="text-049" x="750" y="1793" font-size="21" font-weight="400" fill="#092D55" text-anchor="middle" dominant-baseline="central">这是不改预测器的补充旁路；同步画面不是模型视觉贡献关键帧。</text><text id="text-050" x="750" y="1823" font-size="21" font-weight="400" fill="#092D55" text-anchor="middle" dominant-baseline="central">重建词时间不证明官方A/V来源；仍需保留未知状态及实际核查记录。</text><text id="text-051" x="750" y="1883" font-size="21" font-weight="400" fill="#556579" text-anchor="middle" dominant-baseline="central">实线：已实施流程。虚线补充路线：尚未执行；Q3原媒体定位尚未整体验收。</text><text id="text-052" x="750" y="1910" font-size="20" font-weight="400" fill="#556579" text-anchor="middle" dominant-baseline="central">官方回复未提供槽位映射，也未对特定重建方法作出明确认证。</text></g></svg>